<mxfile host="app.diagrams.net" agent="Mozilla/5.0 (Macintosh; Intel Mac OS X 10_15_7) AppleWebKit/537.36 (KHTML, like Gecko) Chrome/134.0.0.0 Safari/537.36" version="26.2.14">
  <diagram name="Page-1" id="u2jXh7bZRFM-3dut7Qrz">
    <mxGraphModel dx="1426" dy="806" grid="1" gridSize="10" guides="1" tooltips="1" connect="1" arrows="1" fold="1" page="1" pageScale="1" pageWidth="827" pageHeight="1169" math="0" shadow="0">
      <root>
        <mxCell id="0" />
        <mxCell id="1" parent="0" />
        <mxCell id="ltNqIaWVD_5pz1ovLN_R-1" value="" style="rounded=0;whiteSpace=wrap;html=1;" parent="1" vertex="1">
          <mxGeometry x="314" y="274" width="200" height="150" as="geometry" />
        </mxCell>
        <mxCell id="ltNqIaWVD_5pz1ovLN_R-16" style="edgeStyle=orthogonalEdgeStyle;rounded=0;orthogonalLoop=1;jettySize=auto;html=1;exitX=0;exitY=0.75;exitDx=0;exitDy=0;entryX=1;entryY=0.75;entryDx=0;entryDy=0;endArrow=async;endFill=1;startArrow=none;startFill=0;" parent="1" source="ltNqIaWVD_5pz1ovLN_R-2" target="ltNqIaWVD_5pz1ovLN_R-3" edge="1">
          <mxGeometry relative="1" as="geometry" />
        </mxCell>
        <mxCell id="ltNqIaWVD_5pz1ovLN_R-2" value="eth0" style="rounded=0;whiteSpace=wrap;html=1;" parent="1" vertex="1">
          <mxGeometry x="500" y="380" width="40" height="30" as="geometry" />
        </mxCell>
        <mxCell id="ltNqIaWVD_5pz1ovLN_R-15" style="edgeStyle=orthogonalEdgeStyle;rounded=0;orthogonalLoop=1;jettySize=auto;html=1;startArrow=none;startFill=0;endArrow=async;endFill=1;" parent="1" source="ltNqIaWVD_5pz1ovLN_R-3" target="ltNqIaWVD_5pz1ovLN_R-2" edge="1">
          <mxGeometry relative="1" as="geometry" />
        </mxCell>
        <mxCell id="ltNqIaWVD_5pz1ovLN_R-3" value="wlan0" style="rounded=0;whiteSpace=wrap;html=1;" parent="1" vertex="1">
          <mxGeometry x="280" y="380" width="40" height="30" as="geometry" />
        </mxCell>
        <mxCell id="ltNqIaWVD_5pz1ovLN_R-11" style="rounded=0;orthogonalLoop=1;jettySize=auto;html=1;entryX=0;entryY=0;entryDx=0;entryDy=0;dashed=1;dashPattern=8 8;exitX=1;exitY=0.5;exitDx=0;exitDy=0;exitPerimeter=0;" parent="1" source="eymBVDpn0iVgCdA3F5jn-9" target="ltNqIaWVD_5pz1ovLN_R-3" edge="1">
          <mxGeometry relative="1" as="geometry">
            <mxPoint x="215" y="270" as="sourcePoint" />
          </mxGeometry>
        </mxCell>
        <mxCell id="eymBVDpn0iVgCdA3F5jn-18" style="rounded=0;orthogonalLoop=1;jettySize=auto;html=1;entryX=0;entryY=0.5;entryDx=0;entryDy=0;dashed=1;" parent="1" source="ltNqIaWVD_5pz1ovLN_R-6" target="ltNqIaWVD_5pz1ovLN_R-3" edge="1">
          <mxGeometry relative="1" as="geometry" />
        </mxCell>
        <mxCell id="ltNqIaWVD_5pz1ovLN_R-6" value="" style="sketch=0;pointerEvents=1;shadow=0;dashed=0;html=1;strokeColor=none;fillColor=#505050;labelPosition=center;verticalLabelPosition=bottom;verticalAlign=top;outlineConnect=0;align=center;shape=mxgraph.office.devices.printer;" parent="1" vertex="1">
          <mxGeometry x="89" y="285" width="56" height="47" as="geometry" />
        </mxCell>
        <mxCell id="ltNqIaWVD_5pz1ovLN_R-12" style="rounded=0;orthogonalLoop=1;jettySize=auto;html=1;entryX=0;entryY=1;entryDx=0;entryDy=0;dashed=1;dashPattern=8 8;" parent="1" source="ltNqIaWVD_5pz1ovLN_R-7" target="ltNqIaWVD_5pz1ovLN_R-3" edge="1">
          <mxGeometry relative="1" as="geometry" />
        </mxCell>
        <mxCell id="ltNqIaWVD_5pz1ovLN_R-7" value="" style="outlineConnect=0;dashed=0;verticalLabelPosition=bottom;verticalAlign=top;align=center;html=1;shape=mxgraph.aws3.fire_tv;fillColor=#5294CF;gradientColor=none;" parent="1" vertex="1">
          <mxGeometry x="140" y="428.5" width="75" height="55.5" as="geometry" />
        </mxCell>
        <mxCell id="ltNqIaWVD_5pz1ovLN_R-17" value="Raspberry Pi&amp;nbsp;&lt;span style=&quot;background-color: transparent; color: light-dark(rgb(0, 0, 0), rgb(255, 255, 255));&quot;&gt;Access Point/Server&lt;/span&gt;" style="text;html=1;align=center;verticalAlign=middle;resizable=0;points=[];autosize=1;strokeColor=none;fillColor=none;dashed=1;dashPattern=8 8;" parent="1" vertex="1">
          <mxGeometry x="314" y="280" width="200" height="30" as="geometry" />
        </mxCell>
        <mxCell id="bsQ68h1aLlk8mcWleQC8-2" style="edgeStyle=orthogonalEdgeStyle;rounded=0;orthogonalLoop=1;jettySize=auto;html=1;entryX=0.5;entryY=1;entryDx=0;entryDy=0;" parent="1" source="ltNqIaWVD_5pz1ovLN_R-18" target="ltNqIaWVD_5pz1ovLN_R-33" edge="1">
          <mxGeometry relative="1" as="geometry" />
        </mxCell>
        <mxCell id="ltNqIaWVD_5pz1ovLN_R-18" value="Send/Receive Packets" style="text;html=1;align=center;verticalAlign=middle;resizable=0;points=[];autosize=1;strokeColor=none;fillColor=none;" parent="1" vertex="1">
          <mxGeometry x="344" y="363.5" width="140" height="30" as="geometry" />
        </mxCell>
        <mxCell id="ltNqIaWVD_5pz1ovLN_R-27" style="edgeStyle=orthogonalEdgeStyle;rounded=0;orthogonalLoop=1;jettySize=auto;html=1;exitX=0.25;exitY=0;exitDx=0;exitDy=0;endArrow=async;endFill=1;" parent="1" edge="1">
          <mxGeometry relative="1" as="geometry">
            <mxPoint x="705" y="181" as="targetPoint" />
            <mxPoint x="705" y="250" as="sourcePoint" />
          </mxGeometry>
        </mxCell>
        <mxCell id="ltNqIaWVD_5pz1ovLN_R-20" style="edgeStyle=orthogonalEdgeStyle;rounded=0;orthogonalLoop=1;jettySize=auto;html=1;" parent="1" source="ltNqIaWVD_5pz1ovLN_R-2" edge="1">
          <mxGeometry relative="1" as="geometry">
            <mxPoint x="670" y="395" as="targetPoint" />
          </mxGeometry>
        </mxCell>
        <mxCell id="ltNqIaWVD_5pz1ovLN_R-30" style="edgeStyle=orthogonalEdgeStyle;rounded=0;orthogonalLoop=1;jettySize=auto;html=1;exitX=0.5;exitY=1;exitDx=0;exitDy=0;endArrow=async;endFill=1;" parent="1" edge="1">
          <mxGeometry relative="1" as="geometry">
            <mxPoint x="708.75" y="250" as="targetPoint" />
            <mxPoint x="708.75" y="178" as="sourcePoint" />
          </mxGeometry>
        </mxCell>
        <mxCell id="ltNqIaWVD_5pz1ovLN_R-24" value="" style="shape=image;html=1;verticalAlign=top;verticalLabelPosition=bottom;labelBackgroundColor=#ffffff;imageAspect=0;aspect=fixed;image=https://cdn4.iconfinder.com/data/icons/ionicons/512/icon-ios7-world-outline-128.png" parent="1" vertex="1">
          <mxGeometry x="680" y="111" width="58" height="58" as="geometry" />
        </mxCell>
        <mxCell id="ltNqIaWVD_5pz1ovLN_R-31" value="Send/Receive&amp;nbsp;&lt;div&gt;Packets&lt;/div&gt;" style="text;html=1;align=center;verticalAlign=middle;resizable=0;points=[];autosize=1;strokeColor=none;fillColor=none;" parent="1" vertex="1">
          <mxGeometry x="710" y="201" width="100" height="40" as="geometry" />
        </mxCell>
        <mxCell id="ltNqIaWVD_5pz1ovLN_R-32" value="&lt;b&gt;BT Home Router&lt;/b&gt;" style="text;html=1;align=center;verticalAlign=middle;resizable=0;points=[];autosize=1;strokeColor=none;fillColor=none;" parent="1" vertex="1">
          <mxGeometry x="645" y="316.5" width="120" height="30" as="geometry" />
        </mxCell>
        <mxCell id="ltNqIaWVD_5pz1ovLN_R-33" value="IDS" style="whiteSpace=wrap;html=1;" parent="1" vertex="1">
          <mxGeometry x="388.5" y="319" width="51" height="30" as="geometry" />
        </mxCell>
        <mxCell id="ltNqIaWVD_5pz1ovLN_R-39" value="&lt;font style=&quot;font-size: 10px;&quot;&gt;Sniff&lt;/font&gt;" style="text;html=1;align=center;verticalAlign=middle;resizable=0;points=[];autosize=1;strokeColor=none;fillColor=none;" parent="1" vertex="1">
          <mxGeometry x="414" y="346.5" width="40" height="30" as="geometry" />
        </mxCell>
        <mxCell id="eymBVDpn0iVgCdA3F5jn-1" value="" style="shape=image;verticalLabelPosition=bottom;labelBackgroundColor=default;verticalAlign=top;aspect=fixed;imageAspect=0;image=data:image/jpeg,/9j/4QAYRXhpZgAASUkqAAgAAAAAAAAAAAAAAP/sABFEdWNreQABAAQAAABkAAD/4QQPaHR0cDovL25zLmFkb2JlLmNvbS94YXAvMS4wLwA8P3hwYWNrZXQgYmVnaW49Iu+7vyIgaWQ9Ilc1TTBNcENlaGlIenJlU3pOVGN6a2M5ZCI/PiA8eDp4bXBtZXRhIHhtbG5zOng9ImFkb2JlOm5zOm1ldGEvIiB4OnhtcHRrPSJBZG9iZSBYTVAgQ29yZSA1LjYtYzA2NyA3OS4xNTc3NDcsIDIwMTUvMDMvMzAtMjM6NDA6NDIgICAgICAgICI+IDxyZGY6UkRGIHhtbG5zOnJkZj0iaHR0cDovL3d3dy53My5vcmcvMTk5OS8wMi8yMi1yZGYtc3ludGF4LW5zIyI+IDxyZGY6RGVzY3JpcHRpb24gcmRmOmFib3V0PSIiIHhtbG5zOnhtcE1NPSJodHRwOi8vbnMuYWRvYmUuY29tL3hhcC8xLjAvbW0vIiB4bWxuczpzdFJlZj0iaHR0cDovL25zLmFkb2JlLmNvbS94YXAvMS4wL3NUeXBlL1Jlc291cmNlUmVmIyIgeG1sbnM6eG1wPSJodHRwOi8vbnMuYWRvYmUuY29tL3hhcC8xLjAvIiB4bWxuczpkYz0iaHR0cDovL3B1cmwub3JnL2RjL2VsZW1lbnRzLzEuMS8iIHhtcE1NOk9yaWdpbmFsRG9jdW1lbnRJRD0idXVpZDo1RDIwODkyNDkzQkZEQjExOTE0QTg1OTBEMzE1MDhDOCIgeG1wTU06RG9jdW1lbnRJRD0ieG1wLmRpZDo5NDYyQkM0QkZCMjMxMUU2QjQ5MDk0RThEODg4MkQxQiIgeG1wTU06SW5zdGFuY2VJRD0ieG1wLmlpZDo5NDYyQkM0QUZCMjMxMUU2QjQ5MDk0RThEODg4MkQxQiIgeG1wOkNyZWF0b3JUb29sPSJBZG9iZSBJbGx1c3RyYXRvciBDQyAyMDE1IChNYWNpbnRvc2gpIj4gPHhtcE1NOkRlcml2ZWRGcm9tIHN0UmVmOmluc3RhbmNlSUQ9InhtcC5paWQ6NDVjMDU0ODktMDE2OS00ZDY0LWJmOWMtYjcwN2UyZThhNjgwIiBzdFJlZjpkb2N1bWVudElEPSJhZG9iZTpkb2NpZDpwaG90b3Nob3A6YzY2ZDQwNzEtNDM4Yi0xMTdhLTg5YTQtYzFkYmExYWI0N2I4Ii8+IDxkYzp0aXRsZT4gPHJkZjpBbHQ+IDxyZGY6bGkgeG1sOmxhbmc9IngtZGVmYXVsdCI+5omT5Y2wPC9yZGY6bGk+IDwvcmRmOkFsdD4gPC9kYzp0aXRsZT4gPC9yZGY6RGVzY3JpcHRpb24+IDwvcmRmOlJERj4gPC94OnhtcG1ldGE+IDw/eHBhY2tldCBlbmQ9InIiPz7/7QBIUGhvdG9zaG9wIDMuMAA4QklNBAQAAAAAAA8cAVoAAxslRxwCAAACAAIAOEJJTQQlAAAAAAAQ/OEfici3yXgvNGI0B1h36//uAA5BZG9iZQBkwAAAAAH/2wCEAAEBAQEBAQEBAQEBAQEBAQEBAQEBAQEBAQEBAQEBAQEBAQEBAQEBAQEBAQECAgICAgICAgICAgMDAwMDAwMDAwMBAQEBAQEBAgEBAgICAQICAwMDAwMDAwMDAwMDAwMDAwMDAwMDAwMDAwMDAwMDAwMDAwMDAwMDAwMDAwMDAwMDA//AABEIAbsCTgMBEQACEQEDEQH/xADKAAEAAgICAwEBAAAAAAAAAAAABAYDBQIHAQgJCgsBAQEBAQEAAwEBAAAAAAAAAAABAgMEBgcIBQkQAAECBAMFBAYGBQYJCQgDAAABAhEDBAUhMQZBUWESB/BxgZGhscEiEwjR4TJSFAnxQnIjFWKSM3MkNLLCU2PTlCUWCoKiQ5OjdFVltdKDs0RFdYU2Zhc3EQEAAQIDBgQFAwMEAQUBAAAAARECITEDQWESBAUGUXEyB4GhsSITQjMIwSMU8JHRcuFiomM0FRb/2gAMAwEAAhEDEQA/AP38AAAAAAAAAAAAAAAAAAAAAAAAAAAAAAAAAAAAAAAAAAAAAAAAAAAAAAAAAAAAAAAAAAAAAAAAAAAAAAAAAAAAAAAAAAAAAAAAAAAAAAAAAAAAAAAAAAAAAAAAAAAAAAAAAAAAAAAAAAAAAAAAAAAAAAAAAAAAAAAAAAAAAAAAAAAAAAAAAAAAAAAAAAAAAAAAAAAAAAAAAAAAAAAAAAAAAAAAAAAAAAAAAAAAAAAAAAAAAAAAAAAAAAAAAAAAAAAAAAAAAAAAAAAAAAAAAAAAAAAAAAAAAAAAAAAAAAAAAAAAAAAAAAAAAAAAAAAAAAAAAAAAAAAAAAAAAAAAAAAAAAAAAAAAAAAAAAAAAAAAAAAAAAAAAAAAAAAAAAAAAAAAAAAAAAAAAAAAAAAAAAAAAAAAAAAAAAAAAAAAAAAAAAAAAAAAAAAAAAAAAAAAAAAAAAAAAAAAAAAAAAAAAAAAAAAAAAAAAAAAAAAAAAAAAAAAAAAAAAAAAAAAAAAAAAAAAAAAAAAAAAAAAAAAAAAAAAAAAAAAAAAAAAAAAAAAAAAMb50mV/STZcv9t7Wf4SoKSIr7pbZf9JcaGX+3V07f8KYhaSVRXahsLcHXu0p/+RpPZOHDd4SOP+8dg/8AGrX/AK9Tf6QvBd4SlYef94rCv/1m2f67T/6QcN3hK1g/3isP/jNs/wBdp/8ASDgu8JSsOSagsS5Xm1/6/Tf6UcN3hJWGRt6sz/sXa2OXc2vpVXySaThujOJVKZW0czCXV0z1XJGT5Toxy+y9cxSRJRY4pii4oqEAAAAAAAAAAAAAAAAAAAAAAAAAAAAAAAAAAAAAAAAAAAAAAAAAAAAAAAAAAAAAAAAAAAAVW/630rpmY2RerzS0lU9nxGUTVfUVzmL9lyUlMydPa1+xXNRF3mosuuxiMCqh1fWuxNT/AGZartcFxg6c2Rb5SomTozpkydyr/Vx4G40p2zCVV6o6u36pilFbbVQtd9l059VXzWd/KtHKVfA1+O3elZaqZr7V9RFHXhJSO/VpKGjkcv7L3y58xIQ+8Xgt8CtYQHX/AFBP/pr/AHpyLmiV82S2H7NP8FFTEtLfCFYnTaioWM6rrZywxWdXVk2K7f6Se7PuNUhPNx+BJVfeltf+3+89L+ZVKM0ump0SPwJOG6TKziv8jFRMyzKdKky25SmJw5Gp4/ZLGKfRNaxMPcanBGonhvOgky2oiZIuOaomOabE9AGeH8hOPupu4JjmVHNstFhFjYfsNiqeKbyTI8/AlO+1KkKm5ZMtfSrQQJRUqrjT08d/4eUnmqMRY+JCnizNpKZqorZXKqZKx82Wqf8AVzGQFI3Kly5tTJWMmtuMrcjLlXQ7uV1Q5sPAzNlk7IKystPOr/gy5jbpdJbpjUVOefIqUSPCppZm1NpmdOydjdZTZdbfpaorblInon6lZbZSIv7UykqKZcE3NMzo2TlUrKZLvd4lwSfQW+qwxdSVs2lcm1f3VZIVmX+cMzy/hJxSlJqejlry11LcaCCRWbNpVqKfgv4ihdVMRF/lcqmJ0b43rWG8pqulrZST6Sok1MlVgkyRNZNZGCKrVcxVRHJHFFxQ5UpmqQAAAAAAAAAAAAAAAAAAAAAAAAAAAAAAAAAAAAAAAAAAAAAAAAAAAAAAAAAAAay9V7rVZrtc2sbMdbrZX17ZblVGvdR0s2oRjlSCo1yy4KWIrMQPmxarhWXLnu1xqH1lxus11fcKua5XTaipqXLNcrnKqryM5uVjcmNRETBD15eTEYr1STFdywyjhGMd20R4ERRv6dXdl35b4IpPJfq2stFWC922K490CZCbLbFdsF4QyyXttCp0tIQThnE0iQ1qYfQu/d3BmZSmIm6O/Z4qREuWmMd2PbYdLaZwJDYIvbzNLTDDNLamWGzLHMbEmWVEXYi4+HFfMiMrUXLtwCufKoqMjWce3HEbMVZUakN+7Ndu8G1llSVmzJctEX3ntavBFVEVfKJfMp4LWkvFEgnK2CIibIJBFTwJSaqzcuXpTz7oFom1zRicYx37wVcHpyPVye6qK2CxxhBNy4QiMDYj06pTXqgqZSJKfWTnUdZ8NrWtq5cyRUTJX4hETlmTZE+SjmPX30Rzmx5VgctW2JsmfBqM19PG0AAAAAAAAAAAAAAAAAAAAAAAAAAAAAAAAAAAAAAAAAAAAAAAAAAAAAAAAAAKb1EqPwugtZT4w5NNXlI/t0E+X/jGrPXHmk5PnRYHK2hpkSMGypad8GoiHqZ+q/UE1VhvSG3NF+gSLPTuxSK5+zNY4ISYXNuZWKJns8cPSZE6WmWC5Fj5ieyMEw9ppEpqOwXtuQTiyksYu5eGPr8RETkJktnq7zcQJbZaJmufCC8EiaKpTWwhD1xhvxImbKiZceGMAtMGRrUhnxhhmBkRE+rvxC0hzaibob+2woy5du2QMk23sV1XJwjByuVP2WrD0imAsjWuRViix3epctwWdzIiKuzzzWIoyyS2Kq9l8I8SSbHGolweix+0iRhgvu4eAWPkgVMGTbZMTBW3m1pGKIqJNnukLuwVJxnUj7JWM19PC2AAAAAAAAAAAAAAAAAAAAAAAAAAAAAAAAAAAAAAAAAAAAAAAAAAAAAAAAAAOuOr034PTLW0xVh/sGrl7M53LKRMcMVebs9cJOT552WZyyJDc/cRF34JhE9Msbl9trvfamEFRfDJfCCjZiq408INxwT9EOBJVu5CJlvhth3kN7YSkTJeGPjtXiIVPl78sE7R2mmZTWdlVNuyBGUhnshwOkYkJUvPLZ3KhoTGptw7d4RJYiwTbxTLxFSGXlXDsvpIuTK1i8OybcAOfLx8vUVasrWpDj2iWIHNG4fZVV7vLvGBLcWeWrqlXcqJyyncM1RNhmZJ+SwK1yriqeCe2BUeUZimMduCQ9pKokS2Im/Lvj4YQH0XNiqWpzJgmDEVOC8yxTFILFBaNRcXfDo0m5fArLZORVTCMu5UueG5xL/TPksZr6eB0AAAAAAAAAAAAAAAAAAAAAAAAAAAAAAAAAAAAAAAAAAAAAAAAAAAAAAAAAAHU3XOZ8PpVq7YsyloZKd867UEuHijjen64Scnz3s7/wB3LivBIbEXZGMYoeqWauw7asXtXemC4Qhv3Yk3Gyq70n2Uj5Jv4QJJnk3shEWHdl4Yd5FbKUiZZ5R9XqQo2EpEjkq7NuH6S7GZT2JgietERcIiIqymSJE2fMZJky3zZs13LLlymue96riqNaxFcqojVVdyJHYdMKVlrbg6WvHzOfLTpi+TdNai+YHpFab/AE891LVWydq+jq3UNS13K6nr623MrrZRTmOSDmzJ7VaqQdDExOrZWmZSdjvK3VtvutuoLxaLjb7xZ7rTpWWq8WevpLpabnSK5WpU2+52+dUUVbI5kgrpb3cq4LBcDUXRdODNKZtmxNpVZUbx2bs+4LuZUanaPkWBzRIdo+vvLSJGZmXp+n0knNWREzjHDdu4dxEbuys/eT3ZQltTFN7lzh3EnBM4bzliu1OC+WzYK4Hk5I1Nv1pinECQxESOEPDhhgSVzR6rJiphiqYbs0iuzEtqT4tFeU/2TWu2NlypmWP7mpkTdnBhbomYmixXYvx/PdAAAAAAAAAAAAAAAAAAAAAAAAAAAAAAAAAAAAAAAAAAAAAAAAAAAAAAAAAAB0r8wM74XTK6S4on4q42Om7+e60r4cf6M6aXq+CTk+flpevw2JkqKqLnvXbkmR6dtdzDsa2OxY6K7M8McIL3EWcpdgUSpBIYqqJtwXf3qSd6t9IzRO71Lv3EG1lIvcienPM0J8rYGZTmIvbhmviat/qkeL5dfme9dtT6E0tovovpO7V2nv8A+zbRftVdQ77a6idRXKboGyVbbNTaPpq6meyqoqLUd1dOnXJ0lzZk6kpGyOZGTJiLx17prwt2xE4uiej35Xmqdc9K7DrG99TLJ081Jq6xUV/0loWVpF14tFvtl5pJdbYJes7zTXKjm0VZdKWfLmzZdvp5qUTJqI9ZjmuQlulM21jP6k3Umjx+X31B1r0e+Ymd8vV9dU0mmtbXvVejb7o51V+ItGl+qemJFfPotSWGWnLJo5lxdZJ9FWPktlsrqWfKmPZ8RiKi2eG7EuisV2vvM1jmslPVqtbNar5SuaqJMYi8qvZH7TUdFIphFD04VYhkTyWOKR9KlGuu+oNP6dpKq4aiv9j09QUNur7xW118u1Baqajs9qayZdbxUTa2fK+FarWyaxampVPhSedqPciuaiyZiM1hspE+RUyKeqpp8mppauRIq6Sqp5rJ9NVUlVKZUU1XTTpaulz6app5jZkt7VVr2ORyKqKaicKxkrJLqqWZUTqKVV0sytpJMifWUUupkTKyjkVizEpJ9ZSMe6opJFZ8F/wXTGtSajHcsURSViu9EvsmfrJnCN/ZU9yoXar5bNqp9ly9+CgmW6VitzRdmOzfgsM0JUxzl5SMY4LiiQ+mARIRF2GZlqGKoZg1V4wTisIekts1whJae8Seaz3Bu1aOo2xWKSnqmWzAtSFup3/Ep5D8+eTKfH9pjV9p4HVmAAAAAAAAAAAAAAAAAAAAAAAAAAAAAAAAAAAAAAAAAAAAAAAAAAAAAAAAAAdB/MdN+H0+pmf5fVVglZwymT5y+SSTrper4JOT0HtruR82Wv6lRPZDDHlmOx9B32Mux7U/CXsxj9PmCuDsOgdFG8Uh6Nu9VgTPAj5rBJVE7sPp8CK20tfs7oJHv4GhPkrlwXLttDE5vV35vfmXu3yu6G0Nq+z6NsGt6nV+t6zSU226hvl0sFPQyKTTdVf/AOIUtRaZFRUVNSr6dJbpb0RjWO5oxM33zZFbfFq2K1fJ3qz86+h+uVXR6g6sfJ10n1zdNPacuGn7VV1vVHqXRupLHPnz7pU2xG2qXRy3SqitmumK5zXTEV2Cwghwm7jxmMf9bm6UikPeTrV8+l86CUPS7R+j+l2ikn6i+X/pb1AsVxvmqr261aK/3isrpNvsEuzMkyJ9/temKa3S2SZlRWSJlUjU+K5Fiq9vyTwxbGEUZ4azi6X/AC+ujOteoPV9vzLavl3J+mNNVmqNQWvVVzkfAd1G6o6ll1tLUVdllK2UlbZbC261VVVVclFpEnrJppTnK1/JnTjiu3JM0je92bXqTVejuoHz/dS7drL+IWvpfe6y5SOkt2k0NTbL3erR0L0hedPXKZeXzXaosNptz2zGLb7f8KjqEdMeqfEe9yImazMTjiuyi3aT1x1Z0vrroPYtYdS7F1cTr3pPUN8uejaHRmmtGXzp5U2jQjNcUl+0tMslZNn/AO434t7bNUy74570qaiTMbURcqJq2+6seH/n/X+sCYiirdVtY3St1JI19M0PeNBahtfydfMzX0mk+p1n01dLvbai06n0pMpZl9s9JW37TtztddOktnMkPmzZU6Xy/EamQn7pmds/8FKLncdV9Xr1N6v1+ktfWXRlt6E6A0Be7bpqXoSx3e062uV06VSOol3l6wqq138QoLNORj6GlprS6j/Bs5ZjVdDkM8d/js/qfVQ6Xqde3dYtR11jn23QDOuFD8r8m9dQbnS0l5tWgWXTQFfeKDTMuTXRpqnVutJtU612Spr2/wAPkzkVz1dOWVJmIunOMyni+gqy0Ryt5Hs5FVismLGa1We6vxFVGxmxT3sE96METJPRXazisdlZ+5m4f9M3hkxCTO0mFgRmH2Ugu+GMY57TlMrDG5nKqQyXDOMFNRdWN6UiMmRG7FVV9cOymZkyYp7UVrM195VxjsSCx4YmrJxklqrqkbfUsgkXyZsvHbzSZqQTj5nSM9xtbm0KrrTa3Lm63USr3rTSlPDOcujYkAAAAAAAAAAAAAAAAAAAAAAAAAAAAAAAAAAAAAAAAAAAAAAAAAAAAAAAAAD1s+ZyesvSGnZKLD4+raN3f8C3XKZl3nXSznyZuej7G/CutfLyT8U56IiQwmNbMTvhzHf6VZja7CtKLyNiq5pCEFw3RRRtX/h2Hb8m9+/HLPJUyIQstOmKRh+gkq20tsOXDZBcPr2lGxktyxXHZCHEuMsS1Gq9CaH6g2qTYuoOi9La7sUiuk3Sns2rrNSXy3U10kS5kmRcqanq2OSmrpcmc9iTGK1yserViiwN8MTFJyPJ8TPzG+idu0j1N0LL6Q9G51h0rdekNxnXCT0y0BdJlgq9T0uprvJqFrW6ct9bIS+S7W+nRUmq2a6S5kEVuXnvt4bqRE0bicMX186a9L+neoemfRS+ax6Z6Jv+rLZ0f6a2tl31do21XTUVrk2/S9B8K1PfeqKbVUbbfUTZkKeY1PhPc5Faiqp2tttpjGxiZmr2CRERkqW1rJcqnky6ankSpbJNPTU0pqNlU1LTyWskUtNKbg2XLa1jdiIbiIiKQuc1l1X1D6I9POo9JqutrdMaZtnUDUuhtQ6EpeqsnTVtrNb2C3agslZYHT6W4zEkzq1KKhr5jGSpsz3pSrL50YsDM2RdNcpWPDYsuh+mWiOn8t9Rp7S+m6DUtys9mterNZW+w2+36l1lNs9uoqH8fqC5U8tauodWPoWznSfiLLR64o5U5i22RbNYmskyst00rpa/zX1F+01Y73UTbDdtKzZ91t8ismzdLX98l9+01MfNRVfY72+nluqqdfcnKxqrkJtiZ3pWjNK0vpiSy+y5OnLLJZqmjpbbqdkqglMbqO3UFp/gFDQXtqQ/iFJR2H+xSmPijKX93kTgt+RWUF+gNBzbfebTN0RpObatRWez6e1DbJtko5lDfLBp2mWj05ZrpTTGOl1dv09SL8OhYsFpWfYVFxJwWrVbJTGSpcmTLbySpMqTIkMRVVsqTTy2yZElqvVzlZKlMa1IqqwRIqpcIyN62WVP7O6O2e6P/VtyMXfOg3aYw4Lty74psWBzHlURyLlHZFPHNI4iMDc4pv3b+28srlDFNwRq7YqnqXyN250Znxae4wVkmXjB8x3MsdnLyqieLzoRtbWwv57La3bqGmbv+xKazP8A5J4r/VPm3GTbGVAAAAAAAAAAAAAAAAAAAAAAAAAAAAAAAAAAAAAAAAAAAAAAAAAAAAAAAAAPVn5opsLToqQq/wBJfq6bDf8AAtc1sfD43pO2ltZl6c1cJd6mKkE+LT0c3xdJRqrnisWHbx8E8V5tCp8NqwwjvjxURnuNjse3KvK2EM08sFTvTDwJORGS0SdiwTujntSBlW0lqqtRe31mxsZOSbvT3CKVYnNsW5eCcTqQ2lLV1dM1yU1VU06PVFelPPnSEe5EgjnpLcxHKiYY4ohJiJzpKVxwZGuc96ve5znvcrnvc5XOe5YqrnOdFznOXNVxGEQUSEjtCwlNyTt6Sxk05pmkYJDwXuLKeSQ3dDDLwhH0k2JNHNPR7CDmmS+ztkSc2nNv6E9KcIkkWmzf3Z23987Df7rNhm8nNu04LHDwT1xQ5Dz7N3jFdxBxWKRhHekIKmf1l8xgmwVGpisIuTuTPA6WJ9GlrnRnyGbERHLH+VMTCC74Gy1sdMrGxW/+RLmSl75U+bKVPBWHk1PXPm3GTemFAAAAAAAAAAAAAAAAAAAAAAAAAAAAAAAAAAAAAAAAAAAAAAAAAAAAAAAAAPUX5pp6c+gaWKRSpvtSqbYJT0MpF8OZTvpRhMs3PVC6py3WjeiQSdbZPHGXNnM8FVDr4srpZ3e6mWabdqJjthgNq7K7nY1tXBqL55xRe+CkxNi1SMkWPGHnku4jTasxa39BUbGRlswgkeK8SxnvY2ti3LLZsOpCXLhDtl9QSa0TJezL0EzwISU3FWPBKbDh9PfwLHguzBkTh4RwjHMSeTO3d2gkOJCcfJzTMhDmkMOG7z9pFc0x8Vjhjj6sALTZv7u+Mf6Z2H/JaiKYvNreJkm/uh61OMmHxPBPohmB4VMMU2ZpnGPAsGPwYnrt3IuHl55m7fAlXKzGqRVxRrZaetcUzxOu8htdNYWljP8AJ1dyl+VxqlT0KeTV9ctRk35zUAAAAAAAAAAAAAAAAAAAAAAAAAAAAAAAAAAAAAAAAAAAAAAAAAAAAAAAAA9LvmknR1Foinj9i2XifDanPUUctF/5h6NL0z5sy9arykKmyzcPepqiVsxVk9rtmxEfuOjK12dfdRPTns2whsLCx4uybYuCQwy8cNqwiiEkjLFbZEIbMFTPu2ZGMfi02stE5Ww24m0lsZPh29kRtrLDYsyTwOqwlyvRuyGxmUuXnCK45bCLCUmMNhTBJZjDdDNce0CwrKnohv8ApwwE/MZ2+r2pmvcZJc07KUhzTtt4ZdxlXNPr+vghCsytdl/uUzBMKheKpGW3bnjA53zW74GxuUjCKZ7ce2aGJzJ3vPq88V9hCfm8Oy27+0NyFhGKYkUht9uxPA1bNJ3E7lYrXf2iYn6qcqKm2KMRcFzhE7bFhtdMujS17dku8XFqJhgjpjZsEhhCMw8mr65ajJYzmoAAAAAAAAAAAAAAAAAAAAAAAAAAAAAAAAAAAAAAAAAAAAAAAAAAAAAAAAB6N/NBMjrrSsqP9Hpqc+HGbc6hFhDhKQ9Ol6J82ZrV6+3zBbEsYxSsSEE2PkxXwN7WfJaLOuCb027MsFjnmF2uyLYuCKuGSRwjliSSFukZfQvcRW3lfZSHo47YbCjYydm1MNvgq9xfqw2LMk9H6DqsJkteEI+XH0hlLl4Q/T3rjtBHglJ+n6SNZpLMky8cvLYa8j6sqYph6fSm5EE7z6s7cvRghEnNzT0eYVzTuisdnbMzKuaZpw3Q8fAhC1WX+6Tf+8J/8Nuzcpi/1R5K3jco5JGEN22PE5SjyqYRRIQXZu3QJE44jg6Pn6PpiqGoPNhcsGxxw9OzI3EY0MlZrGxnznZrz4ptwREXwwOsEZNlpl37u6s2tu0x2EMp1HRTdnFynl1vX8GoyWY5KAAAAAAAAAAAAAAAAAAAAAAAAAAAAAAAAAAAAAAAAAAAAAAAAAAAAAAAAAehvzNPR3UiytRcZeladFTBYK+53FUw7kPTpft/Fmc3Q99WCWFUzjWNWGMcZComMYKhv9TK1WZfdRNyJFc84Yb1gPJYdj2xYcqLHDOOcU2eZJIXCnXBEhsTvy78MiK28r7Pl6jUDYyckh4/XxxJtxYlsmYont79512EJktO36MlNJKXK2dsMfEyQlJDARVY8dqS3JI/X2U1EKypBIouWH0DftGZq4fRmpCWRCJDmnrwTf7EUjW5zTPFVj5wXiTyFqsn91nf94Tw/dp9Bi/1R5DepCCZeOEUXFIROM5jmm5du+KdyGZ8TNhcmeOPd3JszOkHk4ORPNMYcc4eBqCVWq1hUTk3PWO7LDwO0TgQnabX99eGbqmjmw4TLfTtj4rKU82tH3R5NQtRxUAAAAAAAAAAAAAAAAAAAAAAAAAAAAAAAAAAAAAAAAAAAAAAAAAAAAAAAAA+fnzITPidVJLM/gadtTO5Hz6+asIb+baerT/bZnN0vf8A7FiX/OVqJsSHLIXzVNhrbCUWizLg3HYiZY96LtXEEOx7YuCZrlHyE54kLlTKionHGHenjEzisNvKy8vDz3lgbKRDdjDbmXKasS2TMkyyhE6EJcuEEX0JsXJFwKSmS9iYYbsYeJDJLQLCQ3tDwyLB5Mrey7U9cCyM7V9e7wgZ2JlLmnhmFhkT0bd6x495Fck2eGezv2wgRPNaLJjT1H9excf6v1qYvrxR5SuCwNxam6GWaLh6DjOZLm2MYLFcuKJx3mZyGKZFHLlBYerb4m7aUGJc98cY9tptFXqEjPnrl+8cqLhCGGG7JPM7RGCpOnFX+IXlF/yVpfltWVVM9Us8+vnHk1C3HBQAAAAAAAAAAAAAAAAAAAAAAAAAAAAAAAAAAAAAAAAAAAAAAAAAAAAAAAAD53/MK/n6uVyZ/Cs9kl4/qo6mmTdnGYerT/bZnN1Hf3fu7En+drV2/dkphtRTW2Eyp4LPZ1wTuT2D6EOx7WseWGOS7csPSiiTzXKmxRE4J2jiZn5q3Mlfd7vRmWBsZGzdh5rtLtYls5a4J9B0ITJeW+Oa79/gXcTVLl7PRsJ5ZolJv9ZWoSWJh9CZeQVmRd+G1IRTKGGGOBfJGZvt7KZScXNO3s9QWHNO3l7CEuaR749syLXFZ7HjJqY5fFlf4DkzMamcfFVibkm5e/E4SkOSZ/oj3QhuJI4TcIL4LBPFOJqzwGBfbt4myirViQqJ7UyWavshjwid4yidwlafWFxuDUymUdA//q5tbL9pw18o8WoW486gAAAAAAAAAAAAAAAAAAAAAAAAAAAAAAAAAAAAAAAAAAAAAAAAAAAAAAAAHzg67zvjdYL/AAWPwpFmkw4stdOsNm1x67MLIZmlXV1/XGxJxrXInBPgJ4F/VCbFqs0INzgqJ4Aimx2NbV+z2x2elCzmQudLk3LBE9OUNvsMK3MnKGz2+0sSNjJXLhDPtsDE5tnL+ym7YdSM0yWuEPVlsKSmS+2/anqCQlIFjcksyRd2PtzELgypDfsx2eJZPozt38Y8cvKBElzIR4OaQwXzI1uck2YJhniEWqwIjm1DVy5pawjD9V0MjlqzSImM1wqsvK3ceastYOKpBfdwReGEfZEtaxik0cZiRZHcqL7PaW3MRnKm1ccMt2xTrCZ+Ss1iN/EVCO2TFVV3IqIqQ3Rid4n7fgR4vNjX/bU9uxbTKXZ+rXT0whwchw18oahdDzqAAAAAAAAAAAAAAAAAAAAAAAAAAAAAAAAAAAAAAAAAAAAAAAAAAAAAAAAAfM/rLM+L1d1a7FeWto5OeCJKtlE1UTuU9dnohic3XWoXfvLFu+HWrnjhNkImGUBthMlssyp7mWKJ4wyVfErUOx7auLdnt+oSmFV0plwTwh68NiGVbmTt8/pLA2MhYQ8EWG5VXP6S72ZbSXknBPr9R0jJLUxi5eWG2HgqxKfVMlww79i/XgRIzolt9nDx4FWN6QxcI+ecELDUYMycF3bt0fSJRmaTAnOsOabfTj3EHNIdtnHiRXNPD68IeCLkQ+qz6fX3p6Z/0fh9pI9yHPV9JlK0HlaeFSKblzTwLBLw9Itd3fWW2aSm9Dd9aYnaEqrVen9qnZYKiwX9luME3Ip2j0wOFmWF9Zj9u0VTfGVW0jvVNOWv6Y81hdzzNAAAAAAAAAAAAAAAAAAAAAAAAAAAAAAAAAAAAAAAAAAAAAAAAAAAAAAAAAHzA6pv+J1V1m7/AM/qJeC/5KVJlx7k5D1214Ip4MTmo2of7zZWrFI0tWucc6iWi+obYMaLbZcmJhCGe1cE4F81jN2RbFWLcsFh6PoE/wBE20XSlyZxh9PoMSsNzJ2dy/o8zUGPwbKTGKR2ejwHkzNKtnLVVT6fpOsZJCZKX1Qw9uxCkpkv9PZM4ESEtMPPvKsUSGZcceybCxmrMir4QjljsjniBmb7ePh3wISyERzRYQwj+kkrTwc/HNY+WJBZNPr+8n7+WUvH7Tk8sTGr6V212rWeRoBueN6Lj5eoqIa4ZZR9R3hPqrlZBtVOVVwi1e9OVIYd52j0iNbHQvlF/nKO5y4dz6Cb/inPW9PxWF6PK0AAAAAAAAAAAAAAAAAAAAAAAAAAAAAAAAAAAAAAAAAAAAAAAAAAAAAAAAAfLTqFM+P1K1jNbikzU92dnHBtS5nDCLD2RH2/BiVQ1Cv9vszdqUNS6C73VSJnuWBP1QYLfZUhyfs4RXHZ6kKRm7Gtioqtiu/LNM4eYTaulKuDPCMcEMy1Ddyfp7cCwNlJ2R4fWXexObZy/spt/TgdIyqQmS/YsMcEXbxKTvS5cME8/o9JBMTDh6ikJDMESEPXhwjDOIrVWZNiZevv8yyZszfb3R74kJZCI5p27tpJVyTBV8uEOGOJFWXT8Fnz0/zTXeKPh4ZnPWn7PiRFZWw8rQB42lScER6e8sI54Q3Lj5Ha2cMUVu4JGpVMlRGruiisy2Ynot9IgUMUvdm4rdGL40bHInnLOet6PisL+eRoAAAAAAAAAAAAAAAAAAAAAAAAAAAAAAAAAAAAAAAAAAAAAAAAAAAAAAAAA+Umqpnxtbakmxjz6hvLlXOKrcahqYriuR7IypLCtagWN3tbfu2uP8+smr/ikw4oMaLtZoe5h+rvgsMEXxUT8x2Jbs25eUNsPMs5i60uTdmUM1j4cTMrDdyc8t+JYGyk98Po9OZaYsTm2cvLtH64nSMiEyXkkfDzTyKm1Nl7MoJvyjjntIJSYp5lapTBIZCHpXtEsKzIkEWP6PoxG3BPJlb55Y+0hLKhEjNzT649sMSS1sckwhnnhHZj5qBY9Pr/AGmdjnI270mNy4QOWt6PisLaeVcnkDx24lSUaZ9r1Qjsw2bjpbkmatXDCqfHLlYse5FyXZE9Nnpgaymdy3myvXbWVctf/e26rh4qssxq/tysZuwjyNAAAAAAAAAAAAAAAAAAAAAAAAAAAAAAAAAAAAAAAAAAAAAAAAAAAAAAAAAHyXvMz4uqLzNzWbers/gqOuFQqKi7UPbXBhor86N+pGxROW00uz79TVLlgZn1QbKr1Z82Y4wx35cOJdg7EtqxViLhBe/jkuInPA/UutLk30QThlxMq3cj68vNO8sGLZSfD274Q2x3FYltJeKYcO/dj3qbjIjNMlbEy8NiLimEFzNbElLlxjn47I5+ghgmNh3eAWEhmSFiFhmTw24pl4xTAoytyz3b/JTO0llx2duJfMzcu2JFhzTf2RVw8TM+BTBYrAsKuYm+Qvoe3GBz1f2/isZreeVQDwuXtLCSjvwh3Q3+XmdLU37VauSRqVSKJ7jHRXLbgq4RPRb6Rp0925WVy4ct2ltjlH4lJWy4YbFVxNTGyVjN2MeNoAAAAAAAAAAAAAAAAAAAAAAAAAAAAAAAAAAAAAAAAAAAAAAAAAAAAAAAAA+RlW/4l7rZn37hXv8AB1ZPWO7GJ7cIhjdLTXt0dSNTH3LZbkjBFxcs9/qXIzOZsX+zLixF3JhxVO5NpZIxdi27BWbcfUmMBJX7l0pVwb4dtuJlW9kQw9Hp27SxFBspK9vblsLizObaS1w4YQ9fE3bkn1S5eEIY/RngaM0yWi9o+eGwYImN2fpQjUJDPFPZ9KlghmTZgnZPpLIytXv2d0O/bAhLKiCqeTknl2xxJLX0c0hBV9aZbNhnOaDfWBUSthvkTO/7TFOer+38VjNczyqAcVy7doljMnJgm5Ju9O+B0szZlXLlBKhr1hD4TI+bkTZmeizCN9Roprl/FWp+1L3bUTdB810tYQ3I8Xx9k+S7XZJ4mgAAAAAAAAAAAAAAAAAAAAAAAAAAAAAAAAAAAAAAAAAAAAAAAAAAAAAAAGOavLKmO+7Levk1VLGY+Q/Nz3KY7D36iofFEVftTZioq4oh7GGnur+bVFU37tFamf8AYOcqebjP6jZWXY1n/U7s9mSbY4Gh2Nb82bN3lFcfAk5m1dKT7KQ8cIGarubyRs8PKClgbKTmvZEwXHftKzObZyvs9su6MTduSbU2XHgkOHtNEpktV2YfTw24knMTE8e7PzGZCQzLZ7fXsNL5syb0hlHjgBlb34R8IYQhvQhOTL+jd6CJnLkm7j28RLWTns4Yd3rxMo3djX+3y+Mqb6kXvxgY1P25+DUZrqeRQAuQJyYZqe7ugv1eg6WTizVW7nD40tIYLKSPg50N6npsypvPo0M9OWdQOXJt1tb45r7tbKh5RF/pmNyuyTxNAAAAAAAAAAAAAAAAAAAAAAAAAAAAAAAAAAAAAAAAAAAAAAAAAAAAAAAAIle7koa1/wB2kqXY5e7JeuPkW31R5j5EU/vVbFjHmiuzGKqsfSe3zc9rS17o6rukMmfgJaLD7lJK/wDaOf6l2OzbNjyJnlvXYkOKmja7Ft0OZuxFVV2wgnqQsm2i6Un2WwxyxRMoZ9xiVb6Rs7bPYhYGyk55d/DaiqWWZbOVu9hu2KRTaibL2Y927xNEpbOyY+niTaiY3JAv1Z2evh9BpWdM9ywwwEqyp2w9W7Im1GVPaRHNPGAX6ucU9OW1McIE+i/RuLIsLhJ4tmp/2a+qBz1P25WKrweRQABimfYd9GWOMTpb6oZ3K5dETnluhikpU705nepVPTZl8RWa1ytly3/draB0e6upvUhbsp8pHZ54WwAAAAAAAAAAAAAAAAAAAAAAAAAAAAAAAAAAAAAAAAAAAAAAAAAAAAAAAGsvTuSzXZ/3bZXu/m0s1fYW31R5j5HUS81RJ/YYsd8WpuPZOTnRoqpyO1Xe12JVSWIu1OWmkIqYbTH6l2b3aVm/U4NSO2EUTFV25mpMXYtvREVqxyWHbPATnQzldKP7LfDyh6MDNFq3tPmmEfZ47SjZSs08e3mWWZzbOVlD2dszduSJsv0+ScF3miUxnfuTjh6wiY3LEKzM8dsBVWdOOK7l8NppWZvDj57uEDPmm5mTx3kSHlIce3eFhz2ePlx7yK21owuFNn9p6RXbFjtpi/GyfJYXtMjyLAQeQML4qjobEX0L9HkdLc4ZV26RSZT8Zb/NHoeiycJjeKpd/cpFVM/j0a4bESuplVe6CGp9M+UjtM8LYAAAAAAAAAAAAAAAAAAAAAAAAAAAAAAAAAAAAAAAAAAAAAAAAAAAAAAADSamdyab1A/7lkuzv5tBUL7C2+qPMfJO3rGfT/1cuOGUWNxwz8D2T4OavOfzaov7oZXOY1IL9xktnsMbVnY7Zsyx5FXa1IqiYZJs3KakdiW3NmzFd+76xJWarrSfZSCRjBOyZbDMq3sjNMI4Jsyw2r3lig2MrOKdu0Ssy2krJO7Hv+s1aiYz6PSv0G4JzTGLDdtWO71wEomMyTh6wrMz0env8wqSir7cvMuxXNucYZL22kTyZ0WMcyJDkmfbzCsjcu/CEN+8zK7WxtSwr6T+tgv8x8O8l/onyWM1/bkeOc1gIPINzG79buX1b/A3DO1Xroifulhkx0OK8yYYbD02YxPmKZeFVaCqcv6jWu2riydKev8Agmx2weBsAAAAAAAAAAAAAAAAAAAAAAAAAAAAAAAAAAAAAAAAAAAAAAAAAAAAAAABW9Yu5NI6qf8Ad05fHeVsqlNW+qPMl8mraqLU0sMYslIsMvsNTDeuJ6/FzValf8TUF8fnzXasw24T3N9EDG34tTludw2b9TuTLZkmENqGpSPk7Et64tWO3Be70YwFak1iV1pPsptjCOxcdvmZn5kZt9IxVNuKbcywrZS1x9GaJvXyKzLZyck7dkNWomsXKC93FYx4Gyc0tqw84Z7xKJbFwT2dsSLTBmb4efaJY+SpLfFcy1GbNeHj6tpFZkXDtHZ5ZkZyck9qJ5hcmRFXemeWS93Ai7E624V1J/Xs9MUhDYZu9E+Sw7CTI8crDx+smPb2DYn6nkisa4KvFF354+ETcZJir91wSn75nlgufeemytJTCqmXbG21ybfws1Y9zVdDyQ1A7VlrGWxd7Gr5tRTwtuYAAAAAAAAAAAAAAAAAAAAAAAAAAAAAAAAAAAAAAAAAAAAAAAAAAAAAAAKf1BmfC0JrGZ93TF84Z26oT2m9P1x5pOT5T2pY1lKn9Ukf5vpPTtljyUq1v5rvdXRRI3SvVUy/+bmwj47DO34tThDuqyr/AEeC5R7Jjma2o7Ft64ptxTdu4icvgTmu1HkiQ24bY5ZqiQMz4q30jZxgnkkV8kLA2UrNe5O3kJyZls5PkkPXsN21RNZs4pDZGHA2SlN7tnflw2iUS2L6SLDO3NAuzBJbjnDtgqomRoZWr60XFc8M/EkjOmWzPH25bQjkRY3MS1lFLfOlzLhbJUymlpPqpU65UEqdSSXcqNn1kiZUsmUkhyvREfNRjFVyY4pHE3WxXctMGxtk2VOqKGdTzpM+RMnyXyqimnSqinnM54I+TUSHzJM5mCpFrlSKKmwTjbO+CHZJ4m3Fc0Xiidu8sJLyQeFz+vtiXYzTFXrtBJMpV/ziY4YwSB69PailXJI0Famz8HVcMpL1j6De2qy7Ponc9HSP+/TSHfzpTF9p4ZzbSSAAAAAAAAAAAAAAAAAAAAAAAAAAAAAAAAAAAAAAAAAAAAAAAAAAAAAAAFD6ov8Ah9Odbvxw0zd8s8aOantN6frjzScnyxtONfTQ2Pk/4sEh3eR6NssKBYH81fWvj9uurXRXPGsnZR4KZj+rV1aO9LMuEv8AZgsNuBvambsa35tXimMEVEyH1Nq70f2U2RhCHniuEYGV2t7JXFu6KJxLFRspead/j392JWZzbOVlls9Jq1Exnqx+qJuFn5JjM848fo2CWUuX7CLsZ02cY+30jeqQ3JF4Yej6TUDK39K78NhJVnbljs7eCBJcyG50/qXo7K1LdL3d5F/fR1l6rq6tfIqbayst9I2pbp2Yi06SZsisk18l+m0SZP53tmU897fhteyW9Oc2zN1IznYXX2adk6mpMW6dsVmZmIiI8ZmcIh6k9WvzVvy6PlPqqXQ3WD5uek8jWmnGJTXHSOh6y5dQNQ00+RVPX8JVWnRtJqOpt9eqvRrpVU+VO54qrUPnPSfbXvfrGh/k8ryGrZylJnj1PstjfNfupvpR8a5ju/oehfwad+pr6myNKybomd10zbbPhWJmKoPTr89f8sXqXXMoLZ8w3+7z5s5kiVVa30HrzSdtfMe9Jac1zumnpdBIYirFXzZjGtTFVRDrqe03eUaE8xy2lo8xZE4/j1bZn/3cMfNLe7OXjUjT5nk+f0axWt2lF1I8tK/Uu+EWzO59TdF670V1H09Q6s6fat03rfTFyYkyg1BpS9W+/wBnq27fgXC11FTSvc2OKc0UXOB8C57p3PdM155XqOjqaOvH6b7Ztnziucb4rEv7nJdS5HqWlOryGrZqWxNJpONs+F1s0usu/wDTdETuWs8T2vCpihdiTmrd7/u8pP8AOvRPFuKw4Ih6tPOZ8k2qbXpzUVYm+kq0TvWQ/BMTrE4psdkWlea1Wx33rfRr500tTwTm6NgQAAAAAAAAAAAAAAAAAAAAAAAAAAAAAAAAAAAAAAAAAAAAAAAAAAAAAAA656vP5OmGunbtNXNP50hW+03p+uEnJ8urV/f5K4xRUXikE9J6IxmWHXOll5psx+avnTn44rB857kTcqYkjf4tXZO+7JlLimz2Ikdxqc0wdj2/9WGxUwwzgmOcRJOe9dqLFETDBE24x2wwMzku9vpGbfDwhnjgIj/YbKV9ry3L6zSS2UpVw7k8v0GrWU1kcPHxwgptUxuyPj4IsPISztSWKuzdsx8vFQeaQnbZ9AahIYjlRFgq5bMPeXlbshi5IJvUqs0FavKsUci8qoqQVHfdVFxReGYlIZm4RSGS5ZLuWMYQVDMEoF6vVn01ZbxqTUV1t9i09p61XG+36+Xerk2+1Way2ijnXC6XW519Q5kiit9voaeZOnTXqjZctjnLkduX5fW5rmLOV5a2b+Y1L4tttjObrppER5y8/M81o8ly1/N81dw8vp2zddO6NkRtmcoiMZnCH8/v80j88fqn86evNR9Hug2sNTdGvkptN1mWuTc9NXO5aR198xFvp57KOp1drLUFvfSX7TXTO7LzOs9gopkmfcKZ8ufXve+aymZ+wPansDt/tnqmjb3Poxq9a1IieK+K2WTOPDZE+EZ35zNcrcI+ku+uodxdV6DzPUekzH59Oy6dLQ+2bdObYml18TMW36tc+OtmnlbFYm6e4vl6/Iv+YX5jumdluOj+k1n6BaK1BLorxa+ofzAVd00DfrvLmpKqmXWz9H9PW+v6gVdLXy5yPl1F9m2t1S1yP+GrV5j7W7+9+/a/tvltboHTpu5/notm26OXtibLZxtmJvrFlY2xF0zG2Il+V/aT2d/kN1ruvS787357T5bptt8zby35OP8AJbMVtm7Vu+222MJ/s6V1sxFLdS6Jq927L/w8PzY9FqCrumm9fdC+t0xWPmv03TT9W9N7xNc5OZ8q3VeoJOotOVTlgrWpVTKZixirmn0t2R789kdI1tTQ6rynNf42pX7roj7a7rLtSvnwv0V7v+2fuT3x0jR0e2upafSup6F8Xxfpf3rb5trMRfF/+NfET/8AHqV3Tk9V+m+rvmp+RP5lH6f0XbNddAddW+V/FNRdNdX2yfL0XrOwzJ6MmVNx07SVVRpPWenJk1qy2Xi0TXzZUx0Uny3+4vp7njonfPO26fS9PT5noutE3RdSJyzm26z036daXTbMXRM0ujGj512fo6mh2lo392czbb3Xydtmnra+nN1mtZqUibeKNaLb5s1ojit0uYtv077cLZupxR+xf5Ofm50v82HT6ZeJVvTSXUfS/wCEoOo3T+oqfxE+xXKok/Ep7laql7JT7rpa9MasyjqkamCOlzEbNY5D8yd5doc52n1D8OpxXcjfP9u+Yx/63bOKP9roximMW/PuidZs6lp/j1LtO7mIt4ousn7NWytPyadZrEV+3Usmt2lf9szMTZff7fLmh8P2P7u1XL5hLkrDKbMREXerV88j06eU/BNqm1if2aoRMY089N2cpyIuw6250JydiWVY2a0rvtlAvnSyjw3eqfNuMmzIAAAAAAAAAAAAAAAAAAAAAAAAAAAAAAAAAAAAAAAAAAAAAAAAAAAAAAAdZdZncnSvXjv/AOO1yfzmo32nTS9cJOT5eW53LVOd9yVNcq/sSXuy2ZHeGXXGjF5mMdFFVzGuVV/lLGMMcVMxSKUyqt1IewNlSLZfFEzwjBO83KZOx6DNI5RSMe7huHgSulFkmMYQ7sk45qZnJVgkcU3YYYplHgI+StlLzNMy2MnjuhBe/PxNW5spzM/Je3mbJySm9yp2X2FlEqWqKuGyPbYTESU4hYdY6i0vrm4Xy4Vdj1JOt9oc601NtolvFTTfv702Tp7qFS1MqXJmfCpqDTVN/EbIqK5su8TncqS199ec23TMrgj/AO7vV5lPSU1Pq23yaZKm6UtTRNm0r2UtjfIpZFmmSqyfQLV1sxZDqxtYxz3VS1EyRPlzESTAsxfhFcFhypLB1pp1kNdrC0zpVPcKZJcpamQylW1Mo51K501z7PVXGYyikrJhSvV61ddKdUTOaXMciKX/ADTDJ8Nv+IJ+YHXfS75LulPyvuv8yRrn5u+oly0RrK/W65fFq5/RbQzJGqNbUlVVyZFG11Vq6RNt1pqvgtSSkqqnS2qrVP0P/G3tPT7h71u6jzlsTy/JWxMVjCb7qx/vER8/9/pH347tv7T7O1+b0Kzq6ejdq08b/Ro13W3TdqT/ANIek/5In5ZfSLqF1z1H80PUPSlv1TpT5bnac09oTTt7pGXHTt4+Yi9W6l1TWapnUNRLmUFRJ6O6WqqJlFTva5rLzcVqINmUspU+4f5Rd28v23/idrdBiNLrXM6V12vrW049PRnDgsnO2dWcJmMYttmI9T6D/iBrd1+4/bXOd2d6at2r2/dz93+JoXRMRqaelM2WXamH9yy7Utv1YiZpdb+OJrSa/sUe6bNc6a9znuc73prliqvRObF0c2okYbEPwvbERhD91zNZrObsxixYxd7Wr5oh4pzbeq3zcfKroz5qOnD7Bc5VDZuoml3z770l6j/gZVRdtC6vlyVSnnNfBJtbpq8o1KW7256rT19G9zXN+I2U9nzDsrvDn+z+safO6F188lN0fl04nC63KsROHHbGNs4VxtmeG66J+Kd2drcl3N03V5fVssnmbtKbKzW3jsnGdK+637osunGLomulqcOrZ91sV/Mt8vfzS3T5dvmu03c73a67SV105qup6U9a9Kyuf8LIoP4t/BtUW2es3lWrpbJepbLlbprkiklGujB7j9Fd86nTO7eSnktK2urq6cXad0RW2Lpt4rLomM7ZrExMfpumPF8F7H7c57oHatnOWa93MWaF12vpTdNL7rImbdTTvilLb5si7T1Y262nF8RhD9h8qbLny5U+S9s2ROlsmyprHI6XMlzGo+W9jkwc17FRUVMFRT8j3WXad02XxMX2zSYnOJjOH3Bp6mnradutpzxaV0RMTsmJisT8YV6/R+AxUxVKjDHe16JDid9L+i7VRnpGTNTOMuYnf7qpt2HWMxfNPO5rDZnZxtlD6KaWmw8V3qnzdIybgyAAAAAAAAAAAAAAAAAAAAAAAAAAAAAAAAAAAAAAAAAAAAAAAAAAAAAAAdV9bl5ek2vFy/2BU+l8pPab0/XCTk+XEl/w21sxIJyUFe9FzwbRz1z2Qgd4xqzhEwoWi0/dSYIiIsqUqLnH3WrhwiSGrs3sHZcpeeSR3xh3RNzmzV2NQJCGWxPRlBMMyzJt3rpRZJlsz7sd+PqMKsNPDCEIYefehYGwl5+RUlspOz9EVzVIGrWUxkcIYZG1wTWR7eWeWIZSWYbEj9e1SUwoYVokIPqsM7IQTu9MIF2rjVmThnnn5JsUqsre7H0d3cRH43P+K3bqWT1B+QqttqKts/3X690sheZzWsvTK/p7UTVYqKnLP/AcsIe9BNx+mvYDX63o8hz3/wDPW23dR/yLeKtK8HDFKV31fUHuHy/QeY52+zuen/5M8pp+r014tStf6Pqn/wAONcJtf+WRZkubnrq6j+YfrxI102p5kr26hm6jpqyidcEm/vlnzNM1FC5ivx+CrIYQPg/vvd1vU7+/L3BbNvUruS0+KPCl18Uj5T8X9f2s0+2NDtu/luz50Z7ds17fwfimJs/FOjp8M28OFOKL4/7RdtfZyokatTqRR1FEyfPsDrJbmymMfLlUqyZE+pdfKKZNnO/DSbhNr3y5rlciPfTvkK1ypJc1v0vM3cWGb7KdF9K9T9X52prYyqvWrb1c9Z6b1bVa0sV10Z1EsdFo7UNHPl3eyOt9bqunXSlnZSyHzbNKp7YsmRVy0lz1bMnN+IvH7c9673tX0efqN9hvTdQsrWJK1PcZdp/HIiP/AASU1A6tbSOhzzbZLvzqxtO92CsbBn7pJZm+lVh+Vf8AMikaE0n85PzU2+U2nprvcH9PtV/uuVr0uGpemVC+7zJitSKPnVVulzV3q+O0/bXtXoaHU/bvluY5u23/ACrLZstmmM22X32RjnSLbYj4PzJ3L1TuXpnuPy/T+lTdf25qauvOvH6bb7rtLUw2Vm7UvrG+ZfqM+WPUNZqv5dOhmo7g5z6689KtDVtVMdnMnTdOW9XzXcZipzeJ+Re7uWs5Pubn+X0/RbzN/wA5r/V9+ds6l2t0Hlb7tmnw/C2Ztj5RDs++rGTFMP38tPQ9PJT+PpxS1/c24qlMT3XJuaqbNuZ0jMxXXS6x07ZV/wDLqVPKU1PYeK/1z5tRk3xlQAAAAAAAAAAAAAAAAAAAAAAAAAAAAAAAAAAAAAAAAAAAAAAAAAAAAAAOp+ujuXpHrxf/ACOYn86op2+03p+uEnJ8sKh/w7feZirgy03J3cv4WYmfid42+TMZ71R0YkJUpMMJUvjk1IRXdHcSPFb8nsDZU92XFFXDKOKxRMzco7GoETD2QjluiJ+ZM4rnQpBE4w7KmzMzKrBT5p6O7aNg2LI82HDPtvNJLZStn0foiatzZTWRwyz/AEeRtdiY1cdvtw2xDKSzju8oesn/ACeSQiYduG8KkyEa6ZLY9VRrntRyxhBquRFxWCIqNLvV05K1V1KoG3C8XCy0NZYn3u/WellVNumyJ1Atuvl2p7PXyKPTcqr1DPtN2tdulUrZtczmfcquRNbyUyvjy4r1Z5nUPqG1K1rOktfSzqCbSSqmdcKmudb4zXfhayZTzKOQs2ul0lyRJbVko7npntqIcqK01N0k02vjt+e98t2tPmG+SKyddLRo18zqT8oHUCt60ppCglVVbca/pC+mnad6q2t7KiWsyuvVBpCWl7a2SxkqalugxsVQ+9/49946HavfNmjz0xbyPOxGnMzlF1ft3Y1mKzuh9N+9/aOr3d2VzPIctdNmvqaF+lF0YcN933aN0zGPD+SIsu3Xvmt+Tf8AmN9H+h/XNvSXXevtP2Xpf83MjSVNQX643FlLZtE/MHp63yLDoe43Cpe9lFb9P9cNHzqe1zKuZBkq+WykR6tSr5k/Rf8AKPsKO5ulcr3n0Smr1XlImzU07cbtTSmK1tiv3XW0rERWZisRWZiJ/In8LO4+5OyNTq/tn3fyvMaHR+X5i/W5bXvtnhss1NS6dbSvumJ4Y5fXm6azNtsaOtE14dK+Y/ZK5syS58t6Olva73mL7sHJGC/ysFii5QXA/wA/YmLorbk/0fmKTi7Ct8xZtFSzHKrnOkS4quKqqNRFVe9UPHfFL5je1GSqdSepGh+j+gdX9UepepbXo7QOg7BcdTas1PeqllLbbNZbXIdUVdXUTXYudyt5ZctiOmTprmy2Nc9zWr7Om9N53q/P6XTOnad2rz2vfFllsYzMz9IjOZyiImZwh5Ooc/y3TOS1Of5ueHl9K2s5VnZFsVmIm66Zi22K43TEP573zB6l6ifON831517Z0utu13803U6z23ROhfiK+vsem75PpNLaA09XyWq1ZN2teiqOVX17Vikp75zVgrFh/oL1D2z1Ow+1+Q5nmebnTt5Tk7Z1oytiLI4rscMbprddXbc/G/tb/I/t/wBwep9f6N0rk/zaHJ87qxpcxFZt5rV1LqX6mnE1/sxq/wBnQmJrdZpRqfqf0IunWj6Tp3090RoOgdz0eitI6e0tTTIInxZVhtNJbGTeVMEWalNzeJ/n91Xnp6n1XmOoTh+fXvvp4RddMxHwjB+wOj8jd07pXL8jfjqaWlbF2+6n3T8bqyn3lI0ndNkx83e042v6MfNU3ZLhv7/HLbsNxmbFz0r/APrlm/7hITybA8V/rnzajJYDKgAAAAAAAAAAAAAAAAAAAAAAAAAAAAAAAAAAAAAAAAAAAAAAAAAAAAAAdQ9e1h0f13s/2O1POupE9puz1JOT5U3V6ssGo5n/AJTVtjl/SLLlx3r9o7xlKRnENHo9vuNimSNhmmUE7hGwuzd/WZFRGYY4RimGSeRpHYtvzZ3omWxUEk5rnSJ7qL3Lt7vIk5qsFPjy7tvph5EgbCXi5Fw2dkNbElsZWEPDy2ltzZTWr29vidFjJLZlxSHiu/zDKUxcvYnpgQhJQozM27u2C7Mg0ktfM5ke17keiI3n5nI5E5UajYosUby4Q3FVka56KkHObCHLyuVIJy8qwxwREw7ieQ8T5EmskVFJVyZVVSVkidS1VNUypc+RUU1RKdJnyJ8ia18qfInyXuY9j0Vr2qrXIqKqGrL79K+3V05m3VtmJiYwmJjGJq46ulpcxo38vr2xdo32zbdE5TE4TD8G/wCcB+RXrz5c9a6o+Yf5UtHXTqL8pGpK+uv2sekOmbdWX/V/y81VxmLW3xbZp6mlVFx1d0Pn1cyZOkfhEm3DTaP+A+VMpGyp0r9W+2nuFyfd3Pcl0ju3nLtHmOXpEcc0s1oicIrsvnCtYxxm3bFv073P0zqPbHTeb1uj6Fupzmrbd+LWwiZumJi2NWZw47com6eDUzumJrF3evyS/nEdf+gHTbT+maLqDpX5mul+nLVR0dNojrpfbnT6+0jRWynZJmWLRHXCxU9wus62UrZSypNBqq3XCdRta2U2saxvKn3n3v8Axp7F70unrPQdaem9SvjivnTmJ0r7sZmbraTEzMzWbo4Zn9U3S/Cvaf8ALz3U9t+sXdqe5HQtTnOmRrcGjraGnwalll10RbN/L33W5WxH3cvqXWXY8GjY9y7Z/wAVVoe81a6M0z8les6DVbGuo6eu1b1u0RRaFk1ie42bPvVqsV3vdRQtmrH3KBsx7UWEFgfnXpf8ZdfqPcup0DV61oW6mjNb5/DPpw9M/kpM4+GHg/Z3dHvzZ252LZ3xPTNbW5PV04u07NP8l2pMzEzETpTpxNleGY+7UpXOXxD/ADNPzMvm7+c7U2ktG601zZnaEZe7bctM/Lj0Msd/m6QumqKWpZ/Bqi7SapLjr3q5qukqFa+lZUSpVvp56pMp6BkxEmH3vb7NdI9peQ0eqdran+T13T1InU19Xhm6bc6W1iIstiYjiiIiJiI4uKYq+kuwPe/U98NfqPK969O1endr38vfZp26mpNsxF0cF1fx3TZp3323XW23cepqY3WxfZbdNr9Gf5JP5U/UrpVcrZ853zk2KZZusFVZ50rox0hvM9tfeOlNqvVOsu5ay149rp1NK6l3yhmukSaKXMmts1DNex7lqps1JX0R76+9c908vHavRNWb+Vin+TrWzE23zGP4tOYzsicbrsrsorFX2x7KeyvROzdS/q/I8tHLdMnV49CyYm2/UmMLNa+2cbLIj9qyYiZn75iLeHi/TQ9UWWqoqKipgqLFFRclimw/LFvqh+mpyV68JGjmYfZmSFVNyK9PpPVazXFU18Nmef6MTcZquGkljpy0cKXl/mTJjfYePU9c08WoyWIwoAAAAAAAAAAAAAAAAAAAAAAAAAAAAAAAAAAAAAAAAAAAAAAAAAAAAAAHT/X5YdHtd/8A2mV/6jRG9P1Ql2T5Q39/Jpe/L/lJEiRliqz62mZgm+ETtGU+NGY9UI2kme61YJD3U3Q4ZbSxXBbnfVmT7Ec+XJd6Q27jUo7CoG4t78YboIhZ/om2q50f2U70+qGaGJab2nTKPDHPwLC+TYsz8U4lYlsJWEIru8tuBbZxwTamt+j18DosJbFwTLdnDPioZSmYw3R4/XtJ9RKQKyMxXths9JVSE2cYb8YJiXYqiX7WlXZtRusVJaqStlUmkp2r6+fOqKllS6RKq7vSst1GkpWUdHMqP4Q7kn1LnS+eYicsGrHndfS6m4Vmh642V0q3JdtO3ugrLq58+3yKCotl2pKq0y6qppKm6Sq+TVpLdMt86ldLdTORk2reirT8zEVUnHSaU2pSuSdN62WWglSqmu0xquilVVVKoqFfxFgnPrKmbR2+4vludTXJ0u2slWe7SKj4s9zZb3zPw7V+LnOOc4zgm2262bLoi6ycJiYrE+cS9HusH5V35fPzmMqOpXUj5cbXo7X9+rrzIuWs+lt+qunOs6yZb7tWW5Km/wBx0VMorZdLhWSqZs+ayupZ9TIfMVj3Kqcy/Znbfu/7hdr6UaHTOevu5aIpFmr/AHLY8q4/Om58F637bdodf/8Av8tFa1wpMROyYi6JpTdO6j1JsH/C/flvLdnahXU3zSzpK1Kr/B53WeR+ERJTkX4L6qXpGXcpst2eM5HImCKfIrP5Bd58pzd3UOX0OQt6pfH3av475ma7vyRbH+z+TzntX07qHKR0vm+c5i/ottKaPBoxFI2Vusu88sNlH0d6G/IX+X7+Xk623vpD0R0zYOol9k3+gsWtb/8AxHWfUvUtfZdM3nVlwtVPrjVEy6VVnmT7JYal68k2jplSXy5qjV+Ed1e6PfPekXafW+e1J5Oc9LT+zT8Mbbcbo3XTdD+x297bdodtXWanIctF/Mac1sv1Z45sxifsikWWzExWJtti7e7Dn/MDqLXOpdEUtpnUundN3XqB0QmS6KRMp5t2u2k+qfRHWuu6ywalmzJtdRTYXOhlJLdQ/BcrZEUe5IqvwDhiPP8A8vnbt/5TnNX5Zuijmv8AitmaAsT2zPiun8zZkhXtVJznPdMTlXBVVYlp/clJd13hP7HUKu+Sqfz27sTtZlDO1UUzTire7PYdIzNy06NWOm7ZDGDapn8ytqWf4p5NX9yW4yWc5qAAAAAAAAAAAAAAAAAAAAAAAAAAAAAAAAAAAAAAAAAAAAAAAAAAAAAAB071/wD/APHNef8A2mV/6jRG7PV/rwScnyV1RN5NOPlfrV11t8hqRzbJdMq5nhCSh2/TKW5tppSUrZTYpCKtzw2IiriuGK5FtzgnN3jaWwVvckPR6jWxIdg29MW57M1wVe7ZETgbVwpU91Ms24RWCd3bMyN5IjFq7obdmMIwQsS02EvPu/TjwKxLYS9keG5c8S251RNbsj5erzOixlRLZl9HqXD0hlIauW1I+yJBKbkkfpjxC4Mrc+3pRMyqktXdnEojTrZbKupp6ustdrrKyiWFHWVltoauspE5/iI2jq6inm1FKnxF5kSW5qcyxzJPiqWyjoWypUlLdbkkyHSXyJCW6hSTTPp3PfTPppP4f4dO6nmPc6WrEastzlVsFVVWYMs7pUiYx8ubS0k2VMajZkqdSU06TMaitcjZkqZKfLe1HS2qiKi/Yb91sC4UZmo1OZWsa3me6Y/kYyXzzXwV82ZyI1HzpionM9YudDFVIq46cfGmqJf3KiO3/pJbFyXLFDza2ceTUNxU0NFWrJWso6WrWnfMmU61NPKnrImTZE2lmvkrNY/4T5lNPfLcrYKrHuauCqhxVrGaZ00yZJms0/Y2TaaZQTaeY200DZlPNtVJOt9rmSXtp0dKmW2gqZkinVqosmTMcxkGuVFuKJNLb7faaKktdqoaO2W2hktkUdBb6aTRUNHTy05ZcilpKZkqRTyWIkGtY1GpsQ6WVxlJ8Ea4s+JTVLUx5pMYZKqtg7FcYfZO1mTMqW1YubtirfWi5eJ0XBadGf8A63b8Ie9Xf+o1frPJq/uS1bktBzUAAAAAAAAAAAAAAAAAAAAAAAAAAAAAAAAAAAAAAAAAAAAAAAAAAAAAACndQdPu1VofVenWIrp12sVxpKdESKrVOp3vpEx31LGGrZpdEzkTi+LV+R8yfaLW9jvi0jJtdVtciokqfPRKaXJcmaTWNlvjujA9ExslmKxWV/07SJLSWiokYIseMNyQjiW3KqTm7btUtURNm+CQwgscc4oUj5r5Qthy9yd2UfSSZrKRSq100IN4whlGG9F2kxabuSu/PDbl7SwNgxYOTIqSny1SPDBUj4x4QiLd7Ka1cu30ZHXaqSxUT6t+3KCBMNqSzNMvT+jAiJbMuHbAKytXHtuKv1SWw24ce2WJRkRY7Vgm0H0Z27O/d3mUnNy7b1C/Rzaqd+RJVaNNPTnrJcYxbImJ4fEYsfQcNfKJW1azztOKbe9SyjDNT3orsb6MVxzidLMqJKDOguMMPdw37024Kd7PBmZUKvVLetW5/wBmma+czBYvaiRkMaiYq6Y9WsRE/WU6bxfrHRvoLPbaOYkJsijkNnJgsJysR05IpgsJrlx2nhumt0zvdIybUyAAAAAAAAAAAAAAAAAAAAAAAAAAAAAAAAAAAAAAAAAAAAAAAAAAAAAAAeOZN/tLSR6Jdc/l/qlvdTrfSFtnXCiqnTqm7Wq3SvjV9uqJr3TaiopLfLRJtfb5056zfhyeadIe5/Kx0t0Gd7bopEXZszudB2m3q1HfDWVNVjuSZyPg6U5MFZOlv5Jsiai/aY9qPRc0OnlkzvX63yZjERHMh3qkFwzzhiI8djWxcKJr8PdWEc4+MeASi0UyKnLhu3Y4b/UZWG4lRw8tmezCO4QNgyOGGxI7fXE0kp0pVgiQ9KE+rO5NYqw2+OHlwOsZG1JZHJEj6e7uNExilN2YcIElPoky1dBExXtxywIRikIuOAaSGqsO9IR7ZKagZU9WSbeyxEjM3Zh3JhvzTgQlkTt9ASHJPL1xJLTf6emI2umMVf6WncibldLex0O9GuU460fZ5Stq6nlaeAiLOe1EVyx5eVUVy4IiYpFyrBETDyO1kTkz9Fbq79aqWEh1W2dUuT93TUTXVVRMWGDGMkxRVVcMzvGddiZvNJaKi5VVLcbrK/CyKVzJ9JbOZr5rp8tyvkVNxmsXkV0hy8zJLfdY+DlVVRETlqasU4bWot2ytx52gAAAAAAAAAAAAAAAAAAAAAAAAAAAAAAAAAAAAAAAAAAAAAAAAAAAAAAMLnr3J2zNxakzRFfNXGGzados8U80Z012cVTcscY8Nx14YiCMVC1RoDRmrVfOvlgpJte6PLd6JX2u9Ndywa7+J0CyaibyQwSb8RvAnBH6ZoTR0rd+hN2pFfO0hq+TPY1YybVq2jdLfDPlbf7IjVVdiLOo38VJS+JxxhNzrW50PULSUXah0Nflo2RV1006yl1ZauVP13Pta09fJRUx/eSWqiZma7JrUayi6oaYe9JM26UtLORUa6RcZdba6hipsdLqqRzUWP8AKFYKrpR6ysc9GrKuFFM2wkXCgnqvFGJUMmw/5IVZaa80k5EVjprsl5myZr0VFxTGS2YkIcS1oNpKuVMmc5rVzg9r5a7/APpGNziGaJ8u50iwT8TI4fv5aLw/Wibi6dqYp8uskOhyzZa90xi+pVjGJYugmPFNlz2LDFFwwVFSHjjniWsSiUyemEM1jsy2egq5SktnNzxjHtEhXxZ2zmombYJvVEyzjEq4fFy/FyGpF0yU2MVxmy0TH9pwqRLklfSRwqZEdyTpax8EcqxgMBlSskrijlcn8iXNf6Wy1wGGabN6POvVtpmq+oqpUhqRi6fNk06JDGKpUzZKk+qtYzqTpK1T5dS7UNjVZSuixbxQOVzVarXsVtNMqno5Uy93BTF0RdbTxWJw3vL+v+lp838NaVm3aqWCNp7PQXS9Tnqv6rWUlJJbFV/lHL8NsZzMrxS29JqjqHflRbfpGstNK9VT8ZqOporDLRFSKOl0LWXe8PSG9ktdkSxbpROETJi20vSF3uc34uotTz5spURUt9lkzKWUxYJ7r7jcJ1bWTWxjjLZTqJuujKIgp4rva7JabQzkt1DJp1ydNXmm1D45/EqZzpk98eLoHG6bp9U1WG4MKAAAAAAAAAAAAAAAAAAAAAAAAAAAAAAAAAAAAAAAAAAAAAAAAAAAAAAAAwObsOkSzMIb2KkU2Lt+k723RIiuauSnStciPHYjzGLl4pxKiI9q/UEynchvWZLVXMc5jtjmuVrtv6yKi5k82lYvNlsl6luZerFZbwjkVHLcrXRVUzLNKh8n8S1VTaj0UUiR0/d+hXSy4q97dNTrTNfFfiWK619C1jtkKac+spUTHLkJwWp9XXdd8udrYqusmt9Q2pceWVWW6hrpTVxgnx6GotVS5E3riJ042TgYNDO6L9RaKKWzqVSz2tybPm6qt73ImXMkuruEhF80M8E7JKRsrVFXQnXaiitNqi21SIsE5dTOi5NuFysbuVe9ykm26Cjilq+YWQ5GqlFPwj8R910dVtVEXL95SSZnoEcR5k2T8w8tW/Bt1lqmqnvq6p0fIe1dqIxZC/EjvRR9xPjLOr/mAYn9xt7uDZGlld4Ik5EyUUuIbO00/W64tqHXK72XTSyHslyZdfZrXXvrWuaqumyv4X8dkqXKVOVfiKjlVcEhEsV2n0bttl6oR/edRrFL/qdH0z8oQ/pJcEJj8DNkTT2vH/0/Verkxz/h+lrNTw/YdMaqoUo8Lo+9T8K7qvr+fH7SUi223ou9EWnlo5vCGQx8ZKObemOnqhf9qag6gXeMFd+M1jcZbH70cyQrUgu5FFPMwlv7d0k6YNex03SEi4vSCo68XK73Tm2++lRW8rvI1Fts7DBe6HpT0ydXfxFND2VKhZcmUkhqVjbYxtO1Gy3y7UyrbQsmuT7b+RVmLi6KikLSHcVppKO207ZNroKC1yUSCSbZRUtAxIcKWVK5opviOG1Y8ZbtiKqq7au3aq71Xga+iJ8tqxicL5woJjE2nC5drIZUAAAAAAAAAAAAAAAAAAAAAAAAAAAAAAAAAAAAAAAAAAAAAAAAAAAAAAAAzAxqzd6fpNRckxVhdJjs9qG4vSm1gdTouX0+s6xqTtJR30kYwj9ZqNSNqIsyiVdkfCMPWa4rZMkCZborl6FTDduNRSScECbalcuCbdypn9AECbZHOj7q7NkV+hcRWh9UGZYXL+q7PH3Vx+gp9UR2nnQhyrwwVEywh4kqI66ef91U4Q7YkwlWBdOzfuOTwinjmKQmDEunJq7PCEBTEYXabm/cXyj5QJwwI66Zmrk1Y5ds1HDAJpeYv6kV/ZVe0RwqzN0tM+6qcMcvWOES5Wlnoqe4vr9ZYtgrLc02nHsh7qxWGztCBaCz0doWWmW7YuCRFYjNG/k0fK1EwRE7ROc6kQtapzJCJs+g5XakyJLWQOU3FGQy0AAAAAAAAAAAAAAAAAAAAAAAAAAAAAAAAAAAAAAAAAAAAAAAAAAAAAAAAAAAAABx5W7vWWsjxyJxHFJR4WW39KRLxSlIjJx+AxdiY8PrNfkuKOC0zPup6S/luKPH4WX91O3gX81xRx/By/up5r9A/NcUcfwcv7vqL+aU4XH8FK+4vkpfyyUPwUn/ACa+kn5ZKS4rQSV/U9BfyzuKPH8Pk/c/5v0oX807ijylvlfd9CIT887lo5pQSvu+cF9ik/NKUc/wcv7qen6CfmuKMiU0tP1U8o+sk6t0rRkSW1MsO6H0GJumSjmiImwlZWjyQAAAAAAAAAAAAAAAAAAAAAAAAAAAAAAAAAAAAAAAAAAAAAAAAAAAAAAAAAAAAAAAAAAAAAAAAAAAAAAAAAAAAAAAAAAAAAAAAAAAAAAAAAAAAAAAAAAAAAAAAAAAAAAAAAAAAAAAAAAAAAAAAAAAAAAAAAAAAAAAAAAAAAAAAAAAAAAAAAAAAAAAAAAAAAAAAAAAAAAAAAAAAAAAAAAAAAAAAAAAAAAAAAAAAAAAAAAAAAAAAAAAAAAAAAAAAAAAAAAAAAAAAAAAAAAAAAAAAAAAAAAAAAAAAAAAAAAAAAAAAAAAAAAAAAAAAAAAAAAAAAAAAAAAAAAAAAAAAAAAAAAAAAAAAAAAAAAAAAAAAAAAAAAAAAAAAAAAAAAAAAAAAAAAAAAAAAAAAAAAAAAAAAAAAAAAAAAAAAAAAAAAAAAAAAAAAAAAAAAAAAAAAAAAAAAAAAAAAAAAAAAAAAAAAAAAAAAAAAAAAAAAAAAAAAAAAAAAAAAAAAAAAAAAAAAAAAAAAAAAAAAAAAAAAAAAAAAAAAAAAAAAAAAAAAAAAAAAAAAAAAAAAAAAAAAAAAAAAAAAAAAAAAAAAAAAAAAAAAAAAAAAAAAAAAAAAAAAAAAAAAAAAAAAAAAAAAAAAAf/2Q==;clipPath=inset(9.11% 33.33% 13.11% 33%);" parent="1" vertex="1">
          <mxGeometry x="675" y="376.5" width="57.72" height="100" as="geometry" />
        </mxCell>
        <mxCell id="eymBVDpn0iVgCdA3F5jn-3" style="edgeStyle=orthogonalEdgeStyle;rounded=0;orthogonalLoop=1;jettySize=auto;html=1;exitX=0.5;exitY=0;exitDx=0;exitDy=0;entryX=0.483;entryY=0.933;entryDx=0;entryDy=0;entryPerimeter=0;" parent="1" source="eymBVDpn0iVgCdA3F5jn-1" target="ltNqIaWVD_5pz1ovLN_R-32" edge="1">
          <mxGeometry relative="1" as="geometry" />
        </mxCell>
        <mxCell id="eymBVDpn0iVgCdA3F5jn-4" value="&lt;b&gt;TP-Link WiFi&lt;/b&gt;&lt;div&gt;&lt;b&gt;Range Extender&lt;/b&gt;&lt;/div&gt;" style="text;html=1;align=center;verticalAlign=middle;resizable=0;points=[];autosize=1;strokeColor=none;fillColor=none;" parent="1" vertex="1">
          <mxGeometry x="650" y="476.5" width="110" height="40" as="geometry" />
        </mxCell>
        <mxCell id="eymBVDpn0iVgCdA3F5jn-5" value="" style="shape=curlyBracket;whiteSpace=wrap;html=1;rounded=1;flipH=1;labelPosition=right;verticalLabelPosition=middle;align=left;verticalAlign=middle;rotation=90;" parent="1" vertex="1">
          <mxGeometry x="170" y="408.5" width="20" height="205" as="geometry" />
        </mxCell>
        <mxCell id="eymBVDpn0iVgCdA3F5jn-6" value="&lt;b&gt;Monitored IoT devices&lt;/b&gt;" style="text;html=1;align=center;verticalAlign=middle;resizable=0;points=[];autosize=1;strokeColor=none;fillColor=none;" parent="1" vertex="1">
          <mxGeometry x="115" y="516.5" width="150" height="30" as="geometry" />
        </mxCell>
        <mxCell id="eymBVDpn0iVgCdA3F5jn-16" style="rounded=0;orthogonalLoop=1;jettySize=auto;html=1;dashed=1;dashPattern=8 8;" parent="1" source="eymBVDpn0iVgCdA3F5jn-7" edge="1">
          <mxGeometry relative="1" as="geometry">
            <mxPoint x="650" y="270" as="targetPoint" />
          </mxGeometry>
        </mxCell>
        <mxCell id="eymBVDpn0iVgCdA3F5jn-7" value="" style="sketch=0;pointerEvents=1;shadow=0;dashed=0;html=1;strokeColor=none;fillColor=#505050;labelPosition=center;verticalLabelPosition=bottom;verticalAlign=top;outlineConnect=0;align=center;shape=mxgraph.office.devices.laptop;" parent="1" vertex="1">
          <mxGeometry x="470" y="175" width="58" height="34" as="geometry" />
        </mxCell>
        <mxCell id="eymBVDpn0iVgCdA3F5jn-9" value="" style="outlineConnect=0;dashed=0;verticalLabelPosition=bottom;verticalAlign=top;align=center;html=1;shape=mxgraph.aws3.thermostat;fillColor=#5294CF;gradientColor=none;" parent="1" vertex="1">
          <mxGeometry x="140" y="175" width="70" height="73.5" as="geometry" />
        </mxCell>
        <mxCell id="eymBVDpn0iVgCdA3F5jn-15" style="rounded=0;orthogonalLoop=1;jettySize=auto;html=1;dashed=1;dashPattern=8 8;" parent="1" source="eymBVDpn0iVgCdA3F5jn-11" edge="1">
          <mxGeometry relative="1" as="geometry">
            <mxPoint x="660" y="250" as="targetPoint" />
          </mxGeometry>
        </mxCell>
        <mxCell id="eymBVDpn0iVgCdA3F5jn-11" value="" style="verticalLabelPosition=bottom;sketch=0;aspect=fixed;html=1;verticalAlign=top;strokeColor=none;align=center;outlineConnect=0;shape=mxgraph.citrix.cell_phone;" parent="1" vertex="1">
          <mxGeometry x="570" y="110" width="25" height="60" as="geometry" />
        </mxCell>
        <mxCell id="eymBVDpn0iVgCdA3F5jn-17" style="rounded=0;orthogonalLoop=1;jettySize=auto;html=1;entryX=0;entryY=0.5;entryDx=0;entryDy=0;dashed=1;dashPattern=8 8;" parent="1" source="eymBVDpn0iVgCdA3F5jn-12" edge="1">
          <mxGeometry relative="1" as="geometry">
            <mxPoint x="650" y="287.5" as="targetPoint" />
          </mxGeometry>
        </mxCell>
        <mxCell id="eymBVDpn0iVgCdA3F5jn-12" value="" style="html=1;verticalLabelPosition=bottom;labelBackgroundColor=#ffffff;verticalAlign=top;shadow=0;dashed=0;strokeWidth=1;shape=mxgraph.ios7.misc.ipad7inch;strokeColor=#000000;" parent="1" vertex="1">
          <mxGeometry x="540" y="250" width="49.61" height="80" as="geometry" />
        </mxCell>
        <mxCell id="eymBVDpn0iVgCdA3F5jn-19" value="" style="shape=curlyBracket;whiteSpace=wrap;html=1;rounded=1;flipH=1;labelPosition=right;verticalLabelPosition=middle;align=left;verticalAlign=middle;rotation=-90;" parent="1" vertex="1">
          <mxGeometry x="528.44" y="8.82" width="20" height="148.37" as="geometry" />
        </mxCell>
        <mxCell id="eymBVDpn0iVgCdA3F5jn-20" value="Other connected devices" style="text;html=1;align=center;verticalAlign=middle;resizable=0;points=[];autosize=1;strokeColor=none;fillColor=none;" parent="1" vertex="1">
          <mxGeometry x="465" y="50" width="160" height="30" as="geometry" />
        </mxCell>
        <mxCell id="eymBVDpn0iVgCdA3F5jn-23" value="" style="shape=image;verticalLabelPosition=bottom;labelBackgroundColor=default;verticalAlign=top;aspect=fixed;imageAspect=0;image=https://www.bt.com/content/dam/bt/help/broadband-set-up/hubs/BT-Smart-Hub-2_2x.png;clipPath=inset(16.49% 17% 17.03% 17.67%);" parent="1" vertex="1">
          <mxGeometry x="654.04" y="252.5" width="105.96" height="66.5" as="geometry" />
        </mxCell>
      </root>
    </mxGraphModel>
  </diagram>
</mxfile>
